<svg xmlns="http://www.w3.org/2000/svg" viewBox="0 0 50 50" width="20" height="20" version="1.1" fill="#4A3C31"><desc>queue icon</desc><g stroke="none" stroke-width="1" fill-rule="evenodd"><path d="M25 29.2C25.4 29.2 25.8 29.1 26.1 28.9L48.7 16.8C49.5 16.4 50 15.5 50 14.6 50 13.7 49.5 12.8 48.7 12.4L26.1 0.3C25.4-0.1 24.6-0.1 23.9 0.3L1.3 12.4C0.5 12.8 0 13.7 0 14.6 0 15.5 0.5 16.4 1.3 16.8L23.9 28.9C24.2 29.1 24.6 29.2 25 29.2ZM7.3 14.6L25 5.2 42.7 14.6 25 24 7.3 14.6ZM48.7 22.4L47.7 21.9 25 34.2 2.3 21.9 1.3 22.4C0.5 22.9 0 23.7 0 24.7 0 25.6 0.5 26.5 1.3 26.9L23.9 39.3C24.2 39.5 24.6 39.6 25 39.6 25.4 39.6 25.8 39.5 26.1 39.3L48.7 26.9C49.5 26.5 50 25.6 50 24.7 50 23.7 49.5 22.9 48.7 22.4ZM48.7 32.8L47.7 32.3 25 44.6 2.3 32.3 1.3 32.8C0.5 33.3 0 34.1 0 35.1 0 36 0.5 36.9 1.3 37.3L23.9 49.7C24.2 49.9 24.6 50 25 50 25.4 50 25.8 49.9 26.1 49.7L48.7 37.3C49.5 36.9 50 36 50 35.1 50 34.1 49.5 33.3 48.7 32.8Z"></path></g></svg>