<svg xmlns="http://www.w3.org/2000/svg" width="16.756" height="18" viewBox="0 0 16.756 18"><path d="M8.378,18a2.309,2.309,0,0,1-1.1-.281L.8,14.187a1.536,1.536,0,0,1,0-2.7l1.048-.572L.8,10.348a1.536,1.536,0,0,1,0-2.7L1.847,7.08.8,6.509a1.536,1.536,0,0,1,0-2.7L7.274.281a2.3,2.3,0,0,1,2.207,0l6.474,3.531a1.536,1.536,0,0,1,0,2.7l-1.047.571,1.047.572a1.536,1.536,0,0,1,0,2.7l-1.047.571,1.047.572a1.536,1.536,0,0,1,0,2.7L9.481,17.718A2.313,2.313,0,0,1,8.378,18ZM3.45,11.793,1.535,12.839,8.01,16.371a.767.767,0,0,0,.735,0l6.476-3.532L13.3,11.793,9.481,13.88a2.3,2.3,0,0,1-2.207,0L3.45,11.793h0Zm0-3.838L1.535,9,8.01,12.531a.767.767,0,0,0,.735,0L15.221,9,13.3,7.955,9.481,10.04a2.3,2.3,0,0,1-2.207,0Zm4.927-6.42a.771.771,0,0,0-.368.094L1.535,5.16,8.01,8.693a.767.767,0,0,0,.735,0L15.221,5.16,8.745,1.629A.767.767,0,0,0,8.378,1.535Z"/></svg>